<svg viewBox="0 0 54 54" xmlns="http://www.w3.org/2000/svg" xmlns:xlink="http://www.w3.org/1999/xlink"><defs><path id="a" d="M0 .0001h53.3438v52.5028H0z"/></defs><g transform="translate(0 5)" fill="none" fill-rule="evenodd"><mask id="b" fill="#fff"><use xlink:href="#a"/></mask><path d="M41.3698 45.9311s-2.152-1.015-2.689-1.853c-.536-.837-.359-7.888-.359-7.888.99-1.973 1.322-4.904 1.368-5.37.128-.036.464-.172 1.261-.544 1.792-.836 1.853-5.138 1.853-7.29 0-2.15-2.27-1.733-2.27-1.733l.299-1.792c3.584-1.195-.299-3.526-.299-3.526s.227-5.256-1.684-10.694c-1.042-2.965-5.46-4.1-9.25-4.518-.583-.065-1.151-.112-1.689-.147-.14-.332-.641-.576-1.238-.576-.599 0-1.099.244-1.24.576-.538.035-1.106.082-1.689.147-3.79.418-8.206 1.553-9.25 4.518-1.913 5.438-1.684 10.694-1.684 10.694s-3.884 2.331-.299 3.526l.299 1.792s-2.27-.417-2.27 1.733c0 2.152.059 6.454 1.853 7.29.798.372 1.134.508 1.261.544.046.466.378 3.397 1.367 5.37 0 0 .178 7.051-.359 7.888-.538.838-2.688 1.853-2.688 1.853s-.718-.359-1.554-.06c-.6.214-9.11 4.939-10.42 6.632H53.3438c-1.311-1.693-9.821-6.418-10.42-6.632-.837-.299-1.554.06-1.554.06z" fill="#C2C2C2" mask="url(#b)"/></g></svg>