<?xml version="1.0" standalone="no"?>
<!DOCTYPE svg PUBLIC "-//W3C//DTD SVG 20010904//EN"
 "http://www.w3.org/TR/2001/REC-SVG-20010904/DTD/svg10.dtd">
<svg version="1.0" xmlns="http://www.w3.org/2000/svg"
 width="256.000000pt" height="256.000000pt" viewBox="0 0 256.000000 256.000000"
 preserveAspectRatio="xMidYMid meet">
<metadata>
Created by potrace 1.14, written by Peter Selinger 2001-2017
</metadata>
<g transform="translate(0.000000,256.000000) scale(0.100000,-0.100000)"
fill="#000000" stroke="none">
<path d="M1992 2441 c-97 -48 -223 -109 -279 -137 -57 -27 -103 -54 -103 -60
0 -7 34 -10 98 -10 60 1 110 -4 132 -13 79 -31 90 -36 90 -43 0 -5 7 -8 15 -8
8 0 15 -4 15 -8 0 -5 12 -14 26 -21 22 -10 36 -8 82 9 31 12 60 24 66 28 6 4
13 7 16 7 3 1 29 10 58 21 97 35 157 112 145 186 -12 80 -66 132 -139 134 -38
1 -73 -12 -222 -85z"/>
<path d="M1630 2185 c-86 -23 -173 -81 -218 -147 -34 -51 -68 -135 -58 -146
10 -9 894 -10 909 0 7 4 -9 16 -38 28 -80 35 -100 43 -105 45 -41 10 -81 33
-86 49 -6 18 -67 83 -109 116 -72 56 -201 80 -295 55z"/>
<path d="M1139 2018 c-145 -73 -267 -131 -271 -130 -5 1 -8 -3 -8 -9 0 -5 -4
-8 -9 -5 -5 4 -11 3 -13 -1 -4 -11 -121 -69 -130 -65 -5 1 -8 -3 -8 -9 0 -5
-4 -8 -9 -5 -5 4 -11 3 -13 -1 -1 -5 -32 -22 -68 -39 -182 -86 -279 -135 -285
-143 -3 -5 6 -21 19 -36 13 -14 34 -47 46 -73 30 -63 26 -172 -8 -219 -12 -17
-18 -34 -13 -37 5 -4 33 -9 63 -11 29 -3 67 -7 83 -10 17 -3 62 -7 100 -10 39
-3 81 -7 94 -10 13 -2 49 -7 80 -10 31 -3 71 -8 89 -11 19 -2 62 -7 95 -10 34
-3 80 -8 102 -10 22 -3 63 -7 90 -9 28 -2 60 -6 73 -9 30 -6 37 14 46 124 4
47 9 115 13 153 6 75 12 70 -77 68 -30 -1 -183 -4 -340 -6 -157 -2 -308 -6
-337 -8 -67 -5 -84 5 -41 26 46 22 127 56 133 57 3 0 22 7 43 16 20 8 75 31
122 50 47 19 100 42 119 51 18 8 39 16 45 17 6 1 20 7 32 13 11 7 51 23 89 38
38 14 74 30 82 36 7 6 13 8 13 5 0 -4 10 -1 23 6 12 7 24 13 27 13 60 14 63
18 75 78 13 68 17 82 30 111 19 41 34 64 67 101 30 33 36 55 14 55 -7 0 -132
-59 -277 -132z"/>
<path d="M1346 1788 c5 -56 41 -152 65 -174 10 -9 19 -21 19 -26 0 -5 8 -17
18 -28 15 -17 38 -19 202 -24 159 -5 210 -9 257 -17 21 -4 34 4 72 43 61 62
98 142 105 231 l4 37 -373 0 -372 0 3 -42z"/>
<path d="M125 1580 c-42 -9 -76 -29 -102 -59 -20 -23 -23 -37 -23 -118 0 -83
2 -94 25 -121 33 -40 94 -63 149 -57 162 16 222 221 93 319 -38 29 -100 45
-142 36z"/>
<path d="M1354 1478 c-2 -4 -6 -50 -8 -102 -2 -52 -6 -99 -9 -103 -2 -4 -4
-26 -3 -48 1 -22 -1 -52 -5 -66 -11 -42 3 -54 39 -35 42 22 122 15 163 -14 34
-25 68 -90 69 -129 0 -29 -38 -111 -51 -111 -5 0 -9 -8 -9 -17 0 -17 19 -18
258 -17 166 0 262 -4 271 -10 8 -6 16 -10 18 -8 10 7 26 -4 89 -65 38 -38 75
-67 82 -65 7 2 37 28 67 59 67 70 109 90 180 88 l55 -1 0 141 0 142 -62 59
c-35 33 -79 71 -98 84 -19 13 -37 27 -40 30 -9 11 -210 111 -210 104 0 -3 -6
-1 -14 5 -19 16 -166 62 -176 56 -5 -3 -11 -1 -14 4 -4 5 -19 10 -34 10 -38 2
-107 8 -107 11 0 6 -447 4 -451 -2z"/>
<path d="M0 524 c0 -212 1 -232 18 -236 9 -2 121 -4 247 -3 147 0 233 -3 237
-10 12 -16 9 -63 -4 -67 -7 -3 -122 -4 -256 -3 l-243 2 3 -90 3 -91 323 1
c351 0 357 1 387 57 14 26 16 54 13 163 -3 143 -10 161 -72 207 -26 20 -43 21
-302 24 l-274 3 0 48 0 49 293 0 c160 0 307 1 325 1 l32 1 0 85 c0 47 -3 86
-7 86 -5 1 -169 2 -365 3 l-358 1 0 -231z"/>
<path d="M883 748 c-2 -5 -8 -6 -13 -3 -5 3 -22 -12 -39 -32 l-31 -38 0 -278
c0 -302 2 -317 56 -352 26 -17 59 -18 404 -18 348 0 379 1 408 18 28 17 51 53
60 95 2 8 4 128 4 265 1 268 -2 284 -52 330 -21 19 -38 20 -407 20 -211 0
-387 -3 -390 -7z m637 -356 l0 -169 -257 1 -258 1 -1 160 c0 88 1 163 3 168 2
4 119 7 259 7 l254 0 0 -168z"/>
<path d="M1792 745 c-6 -8 -7 -67 -3 -157 1 -16 12 -18 79 -18 42 0 84 -5 92
-10 8 -5 12 -10 8 -10 -4 0 24 -31 62 -69 39 -38 70 -74 70 -81 0 -6 -35 -47
-78 -91 l-79 -79 -76 0 -77 0 -1 -32 c-4 -102 -1 -151 9 -157 9 -6 192 -6 242
0 8 1 58 46 110 100 52 55 99 99 104 99 4 0 47 -41 94 -91 91 -96 114 -111
175 -113 l37 -2 0 101 0 101 -75 74 c-41 41 -75 81 -75 88 0 8 34 50 75 94
l76 80 -3 92 -3 91 -40 1 c-22 0 -48 -3 -59 -6 -10 -3 -60 -48 -111 -100 l-94
-93 -93 98 -94 99 -133 1 c-82 0 -135 -3 -139 -10z"/>
</g>
</svg>
